REM DIRINDEX 1\2,1\3,1\4,1\5
REM DIRNAME folder01,folder02,folder03,folder04,folder05
TITLE ""
FILE "148.mp3" MP3
  TRACK 01 AUDIO
    TITLE "0:"
    INDEX 01 00:00:00
  TRACK 02 AUDIO
    TITLE "2:cjc046_4066"
    INDEX 01 00:00:13
  TRACK 03 AUDIO
    TITLE "0:"
    INDEX 01 00:01:26
  TRACK 04 AUDIO
    TITLE "3:cjc046_4067"
    INDEX 01 00:01:40
  TRACK 05 AUDIO
    TITLE "0:"
    INDEX 01 00:02:63
  TRACK 06 AUDIO
    TITLE "4:cjc046_4068"
    INDEX 01 00:03:08
  TRACK 07 AUDIO
    TITLE "0:"
    INDEX 01 00:04:19
  TRACK 08 AUDIO
    TITLE "2:cjc046_4069"
    INDEX 01 00:05:28
  TRACK 09 AUDIO
    TITLE "0:"
    INDEX 01 00:06:51
  TRACK 10 AUDIO
    TITLE "3:cjc046_4070"
    INDEX 01 00:06:71
  TRACK 11 AUDIO
    TITLE "0:"
    INDEX 01 00:08:46
  TRACK 12 AUDIO
    TITLE "4:cjc046_4071"
    INDEX 01 00:08:58
  TRACK 13 AUDIO
    TITLE "0:"
    INDEX 01 00:10:04
  TRACK 14 AUDIO
    TITLE "2:cjc046_4072"
    INDEX 01 00:11:17
  TRACK 15 AUDIO
    TITLE "0:"
    INDEX 01 00:12:28
  TRACK 16 AUDIO
    TITLE "3:cjc046_4073"
    INDEX 01 00:12:46
  TRACK 17 AUDIO
    TITLE "0:"
    INDEX 01 00:13:69
  TRACK 18 AUDIO
    TITLE "4:cjc046_4074"
    INDEX 01 00:14:13
  TRACK 19 AUDIO
    TITLE "0:"
    INDEX 01 00:15:23
  TRACK 20 AUDIO
    TITLE "2:cjc046_4075"
    INDEX 01 00:16:30
  TRACK 21 AUDIO
    TITLE "0:"
    INDEX 01 00:17:45
  TRACK 22 AUDIO
    TITLE "3:cjc046_4076"
    INDEX 01 00:17:61
  TRACK 23 AUDIO
    TITLE "0:"
    INDEX 01 00:19:01
  TRACK 24 AUDIO
    TITLE "4:cjc046_4077"
    INDEX 01 00:19:18
  TRACK 25 AUDIO
    TITLE "0:"
    INDEX 01 00:20:32
  TRACK 26 AUDIO
    TITLE "2:cjc046_4078"
    INDEX 01 00:21:35
  TRACK 27 AUDIO
    TITLE "0:"
    INDEX 01 00:22:46
  TRACK 28 AUDIO
    TITLE "3:cjc046_4079"
    INDEX 01 00:22:70
  TRACK 29 AUDIO
    TITLE "0:"
    INDEX 01 00:24:16
  TRACK 30 AUDIO
    TITLE "4:cjc046_4080"
    INDEX 01 00:24:31
  TRACK 31 AUDIO
    TITLE "0:"
    INDEX 01 00:25:39
  TRACK 32 AUDIO
    TITLE "2:cjc046_4081"
    INDEX 01 00:26:48
  TRACK 33 AUDIO
    TITLE "0:"
    INDEX 01 00:27:67
  TRACK 34 AUDIO
    TITLE "3:cjc046_4082"
    INDEX 01 00:28:13
  TRACK 35 AUDIO
    TITLE "0:"
    INDEX 01 00:29:64
  TRACK 36 AUDIO
    TITLE "4:cjc046_4083"
    INDEX 01 00:30:06
  TRACK 37 AUDIO
    TITLE "0:"
    INDEX 01 00:31:22
  TRACK 38 AUDIO
    TITLE "2:cjc046_4084"
    INDEX 01 00:32:33
  TRACK 39 AUDIO
    TITLE "0:"
    INDEX 01 00:33:52
  TRACK 40 AUDIO
    TITLE "3:cjc046_4085"
    INDEX 01 00:33:68
  TRACK 41 AUDIO
    TITLE "0:"
    INDEX 01 00:34:73
  TRACK 42 AUDIO
    TITLE "4:cjc046_4086"
    INDEX 01 00:35:15
  TRACK 43 AUDIO
    TITLE "0:"
    INDEX 01 00:36:36
  TRACK 44 AUDIO
    TITLE "2:cjc046_4087"
    INDEX 01 00:37:48
  TRACK 45 AUDIO
    TITLE "0:"
    INDEX 01 00:38:67
  TRACK 46 AUDIO
    TITLE "3:cjc046_4088"
    INDEX 01 00:39:13
  TRACK 47 AUDIO
    TITLE "0:"
    INDEX 01 00:40:40
  TRACK 48 AUDIO
    TITLE "4:cjc046_4089"
    INDEX 01 00:40:54
  TRACK 49 AUDIO
    TITLE "0:"
    INDEX 01 00:42:00
  TRACK 50 AUDIO
    TITLE "2:cjc046_4090"
    INDEX 01 00:43:11
  TRACK 51 AUDIO
    TITLE "0:"
    INDEX 01 00:44:22
  TRACK 52 AUDIO
    TITLE "3:cjc046_4091"
    INDEX 01 00:44:40
  TRACK 53 AUDIO
    TITLE "0:"
    INDEX 01 00:45:33
  TRACK 54 AUDIO
    TITLE "4:cjc046_4092"
    INDEX 01 00:45:51
  TRACK 55 AUDIO
    TITLE "0:"
    INDEX 01 00:46:62
  TRACK 56 AUDIO
    TITLE "2:cjc046_4093"
    INDEX 01 00:47:70
  TRACK 57 AUDIO
    TITLE "0:"
    INDEX 01 00:49:00
  TRACK 58 AUDIO
    TITLE "3:cjc046_4094"
    INDEX 01 00:49:12
  TRACK 59 AUDIO
    TITLE "0:"
    INDEX 01 00:50:21
  TRACK 60 AUDIO
    TITLE "4:cjc046_4095"
    INDEX 01 00:50:37
  TRACK 61 AUDIO
    TITLE "0:"
    INDEX 01 00:51:42
  TRACK 62 AUDIO
    TITLE "2:cjc046_4096"
    INDEX 01 00:52:51
  TRACK 63 AUDIO
    TITLE "0:"
    INDEX 01 00:53:57
  TRACK 64 AUDIO
    TITLE "3:cjc046_4097"
    INDEX 01 00:54:03
  TRACK 65 AUDIO
    TITLE "0:"
    INDEX 01 00:55:30
  TRACK 66 AUDIO
    TITLE "4:cjc046_4098"
    INDEX 01 00:55:50
  TRACK 67 AUDIO
    TITLE "0:"
    INDEX 01 00:56:55
  TRACK 68 AUDIO
    TITLE "2:cjc046_4099"
    INDEX 01 00:57:64
  TRACK 69 AUDIO
    TITLE "0:"
    INDEX 01 00:59:04
  TRACK 70 AUDIO
    TITLE "3:cjc046_4100"
    INDEX 01 00:59:20
  TRACK 71 AUDIO
    TITLE "0:"
    INDEX 01 01:00:60
  TRACK 72 AUDIO
    TITLE "4:cjc046_4101"
    INDEX 01 01:00:68
  TRACK 73 AUDIO
    TITLE "0:"
    INDEX 01 01:02:10
  TRACK 74 AUDIO
    TITLE "2:cjc046_4102"
    INDEX 01 01:03:18
  TRACK 75 AUDIO
    TITLE "0:"
    INDEX 01 01:04:21
  TRACK 76 AUDIO
    TITLE "3:cjc046_4103"
    INDEX 01 01:04:37
  TRACK 77 AUDIO
    TITLE "0:"
    INDEX 01 01:05:50
  TRACK 78 AUDIO
    TITLE "4:cjc046_4104"
    INDEX 01 01:05:68
  TRACK 79 AUDIO
    TITLE "0:"
    INDEX 01 01:06:69
  TRACK 80 AUDIO
    TITLE "2:cjc046_4105"
    INDEX 01 01:08:03
  TRACK 81 AUDIO
    TITLE "0:"
    INDEX 01 01:09:14
  TRACK 82 AUDIO
    TITLE "3:cjc046_4106"
    INDEX 01 01:09:26
  TRACK 83 AUDIO
    TITLE "0:"
    INDEX 01 01:10:49
  TRACK 84 AUDIO
    TITLE "4:cjc046_4107"
    INDEX 01 01:10:63
  TRACK 85 AUDIO
    TITLE "0:"
    INDEX 01 01:11:74
